<svg width="56" height="56" viewBox="0 0 56 56" fill="none" xmlns="http://www.w3.org/2000/svg">
<path d="M9.33325 9.3335H13.4184C14.8183 9.3335 15.5182 9.3335 16.0246 9.72885C16.5309 10.1242 16.7007 10.8033 17.0402 12.1614L17.5348 14.1395C17.9399 15.7599 18.1424 16.5701 18.5945 17.1731C18.9918 17.7029 19.5228 18.1176 20.1332 18.3745C20.8278 18.6668 21.663 18.6668 23.3333 18.6668V18.6668" stroke="#222222" stroke-width="3.73333" stroke-linecap="round"/>
<path d="M42 39.6665H17.6188C16.6961 39.6665 16.2348 39.6665 15.9045 39.5361C15.2258 39.2683 14.7655 38.6295 14.7259 37.9009C14.7067 37.5464 14.8526 37.1087 15.1444 36.2334V36.2334C15.4679 35.2629 15.6296 34.7776 15.8808 34.3856C16.3923 33.5874 17.1883 33.0137 18.1073 32.7808C18.5586 32.6665 19.0702 32.6665 20.0932 32.6665H32.6667" stroke="#222222" stroke-width="3.73333" stroke-linecap="round" stroke-linejoin="round"/>
<path d="M37.3593 32.6665H21.8292C20.0042 32.6665 18.4467 31.3471 18.1467 29.5469L16.8766 21.9268C16.5922 20.2201 17.9083 18.6665 19.6385 18.6665H43.6463C45.0339 18.6665 45.9364 20.1268 45.3159 21.368L40.6985 30.6028C40.0661 31.8676 38.7733 32.6665 37.3593 32.6665Z" stroke="#222222" stroke-width="3.73333" stroke-linecap="round"/>
<circle cx="39.6666" cy="46.6668" r="2.33333" fill="#222222"/>
<circle cx="21.0001" cy="46.6668" r="2.33333" fill="#222222"/>
</svg>
