<svg width="26" height="26" viewBox="0 0 26 26" fill="none" xmlns="http://www.w3.org/2000/svg">
<path d="M10.3335 7V4C10.3335 3.20435 10.6144 2.44129 11.1145 1.87868C11.6146 1.31607 12.2929 1 13.0002 1H22.3335C23.0407 1 23.719 1.31607 24.2191 1.87868C24.7192 2.44129 25.0002 3.20435 25.0002 4V22C25.0002 22.7956 24.7192 23.5587 24.2191 24.1213C23.719 24.6839 23.0407 25 22.3335 25H13.0002C12.2929 25 11.6146 24.6839 11.1145 24.1213C10.6144 23.5587 10.3335 22.7956 10.3335 22V19" stroke="black" stroke-width="2" stroke-linecap="round" stroke-linejoin="round"/>
<path d="M17 13H1M1 13L5 8.5M1 13L5 17.5" stroke="black" stroke-width="2" stroke-linecap="round" stroke-linejoin="round"/>
</svg>
