<svg width="42" height="42" viewBox="0 0 42 42" fill="none" xmlns="http://www.w3.org/2000/svg">
<path fill-rule="evenodd" clip-rule="evenodd" d="M25.0145 36.2371C24.6864 35.9089 24.5021 35.4639 24.5021 34.9998C24.5021 34.5357 24.6864 34.0907 25.0145 33.7625L30.7775 27.9995H21.0016C17.2883 27.9995 13.7272 26.5244 11.1016 23.8988C8.47594 21.2731 7.00088 17.712 7.00088 13.9988V6.99843C7.00088 6.53428 7.18526 6.08914 7.51346 5.76094C7.84167 5.43273 8.28681 5.24835 8.75096 5.24835C9.21511 5.24835 9.66026 5.43273 9.98846 5.76094C10.3167 6.08914 10.501 6.53428 10.501 6.99843V13.9988C10.501 16.7837 11.6073 19.4545 13.5766 21.4238C15.5458 23.393 18.2167 24.4993 21.0016 24.4993H30.7775L25.0145 18.7363C24.6957 18.4062 24.5193 17.9641 24.5233 17.5052C24.5273 17.0464 24.7113 16.6074 25.0358 16.283C25.3603 15.9585 25.7992 15.7744 26.2581 15.7704C26.717 15.7664 27.1591 15.9428 27.4891 16.2616L36.2396 25.0121C36.5676 25.3403 36.752 25.7853 36.752 26.2494C36.752 26.7134 36.5676 27.1585 36.2396 27.4867L27.4891 36.2371C27.1609 36.5652 26.7159 36.7495 26.2518 36.7495C25.7878 36.7495 25.3427 36.5652 25.0145 36.2371Z" fill="black"/>
</svg>
