<svg width="39" height="39" viewBox="0 0 39 39" fill="none" xmlns="http://www.w3.org/2000/svg">
<path fill-rule="evenodd" clip-rule="evenodd" d="M33.9483 19.7949C33.9843 19.6894 33.989 19.5766 33.9604 19.4689C33.2799 16.9186 20.6478 9.66935 16.6784 8.45053C15.6443 8.1329 14.895 8.2608 14.4551 8.82956C13.1801 10.4758 15.8133 15.5947 17.3501 18.2713L25.3113 18.5509C25.7726 18.5671 26.1335 18.9552 26.1173 19.4179C26.1012 19.8805 25.7142 20.2425 25.2529 20.2263L17.2154 19.9432C15.4855 22.5403 12.6119 27.3375 13.7514 29.0413C13.7941 29.1053 13.8408 29.1654 13.8917 29.2202C14.3126 29.6728 15.0021 29.7918 15.9421 29.5742C19.9842 28.6383 33.0904 22.2944 33.9483 19.7949Z" fill="#7DB249"/>
</svg>
