<svg width="32" height="32" viewBox="0 0 32 32" fill="none" xmlns="http://www.w3.org/2000/svg">
<path fill-rule="evenodd" clip-rule="evenodd" d="M9.57725 5.6098C9.38391 5.73781 9.33724 5.84981 9.33724 6.00049C9.33724 6.14983 9.38391 6.26317 9.57725 6.39117C9.80926 6.54585 10.2013 6.66719 10.6706 6.66719H12.004C12.3577 6.66719 12.6968 6.80767 12.9469 7.05773C13.197 7.30779 13.3374 7.64695 13.3374 8.00059C13.3374 8.35423 13.197 8.69338 12.9469 8.94344C12.6968 9.1935 12.3577 9.33399 12.004 9.33399H10.0039C9.53458 9.33399 9.14256 9.45399 8.91055 9.61C8.71721 9.738 8.67054 9.85001 8.67054 10.0007C8.67054 10.15 8.71721 10.2634 8.91055 10.3914C9.14256 10.546 9.53458 10.6674 10.0039 10.6674H11.3373C11.691 10.6674 12.0301 10.8079 12.2802 11.0579C12.5303 11.308 12.6707 11.6471 12.6707 12.0008C12.6707 12.3544 12.5303 12.6936 12.2802 12.9436C12.0301 13.1937 11.691 13.3342 11.3373 13.3342H9.33724C8.86788 13.3342 8.47587 13.4542 8.24385 13.6102C8.05051 13.7382 8.00384 13.8502 8.00384 14.0009C8.00384 14.1502 8.05051 14.2636 8.24385 14.3916C8.47587 14.5462 8.86788 14.6676 9.33724 14.6676H10.6706C11.0243 14.6676 11.3634 14.8081 11.6135 15.0581C11.8636 15.3082 12.004 15.6473 12.004 16.001C12.004 16.3546 11.8636 16.6938 11.6135 16.9438C11.3634 17.1939 11.0243 17.3344 10.6706 17.3344H9.33724C8.86788 17.3344 8.47587 17.4544 8.24385 17.6104C8.05051 17.7384 8.00384 17.8504 8.00384 18.0011C8.00384 18.1504 8.05051 18.2638 8.24385 18.3918C8.47587 18.5464 8.86788 18.6678 9.33724 18.6678H15.3375C15.5495 18.6677 15.7585 18.7182 15.9471 18.8151C16.1356 18.9119 16.2984 19.0523 16.4219 19.2247C16.5453 19.397 16.6259 19.5963 16.6569 19.806C16.688 20.0157 16.6685 20.2298 16.6003 20.4305V20.4319L16.5949 20.4452L16.5776 20.4985L16.5069 20.7252C16.4483 20.9252 16.3669 21.2146 16.2829 21.5626C16.0801 22.3786 15.956 23.2123 15.9122 24.052C15.8776 24.9641 15.9989 25.6628 16.2429 26.0908C16.3869 26.3442 16.6043 26.5722 17.1096 26.6442C17.1736 26.4255 17.2323 26.1268 17.3176 25.6895L17.3736 25.4094C17.6403 24.0587 18.0883 22.0319 19.7284 20.3919C19.8778 20.2425 20.0418 20.0852 20.2151 19.9172C21.7378 18.4491 24.0046 16.2623 24.0046 12.6675C24.0046 10.7167 23.1646 8.8673 21.8699 7.50056C20.5671 6.12583 18.899 5.33379 17.3376 5.33379H10.6706C10.2013 5.33379 9.80926 5.45379 9.57725 5.6098ZM17.015 26.9015L17.0163 26.8988V26.9015H17.015ZM13.6001 21.3346C13.4067 22.1947 13.2885 23.0701 13.2468 23.9507C13.2068 25.0388 13.3134 26.3402 13.9268 27.4122C14.6068 28.6069 15.8096 29.335 17.471 29.335C17.9803 29.335 18.4577 29.167 18.8444 28.8283C19.1951 28.5216 19.3951 28.1402 19.5191 27.8336C19.7164 27.3442 19.8391 26.7095 19.9418 26.1735L19.9898 25.9268C20.2484 24.6107 20.5871 23.304 21.6138 22.2773C21.7312 22.1599 21.8739 22.0239 22.0365 21.8706C23.5339 20.4505 26.6714 17.4771 26.6714 12.6675C26.6714 9.95135 25.5114 7.46723 23.806 5.66714C22.1085 3.87505 19.7764 2.66699 17.3376 2.66699H10.6706C9.8066 2.66699 8.86522 2.88034 8.09718 3.39103C7.29047 3.92972 6.67044 4.81776 6.67044 6.00049C6.67044 6.62585 6.84379 7.16721 7.1238 7.61924C6.47177 8.16593 6.00374 8.9713 6.00374 10.0007C6.00374 10.626 6.17709 11.1674 6.4571 11.6194C5.8064 12.1661 5.33705 12.9715 5.33705 14.0009C5.33705 14.8129 5.62906 15.485 6.07175 16.001C5.59145 16.556 5.3302 17.2672 5.33705 18.0011C5.33705 19.1851 5.95708 20.0718 6.76378 20.6105C7.53182 21.1226 8.4732 21.3346 9.33724 21.3346H13.6001Z" fill="black"/>
</svg>
