<svg width="32" height="32" viewBox="0 0 32 32" fill="none" xmlns="http://www.w3.org/2000/svg">
<path fill-rule="evenodd" clip-rule="evenodd" d="M14.6315 6.59252C14.3648 7.94325 13.9168 9.97002 12.2767 11.6101C12.1274 11.7594 11.9634 11.9168 11.7901 12.0848C10.2673 13.5529 8.00054 15.7396 8.00054 19.3345C8.00054 21.2852 8.84058 23.1347 10.1353 24.5014C11.438 25.8761 13.1061 26.6682 14.6675 26.6682H21.3345C21.8039 26.6682 22.1959 26.5482 22.4279 26.3922C22.6213 26.2641 22.6679 26.1521 22.6679 26.0015C22.6679 25.8521 22.6213 25.7388 22.4279 25.6108C22.1959 25.4561 21.8039 25.3348 21.3345 25.3348H20.0011C19.6475 25.3348 19.3083 25.1943 19.0583 24.9442C18.8082 24.6942 18.6677 24.355 18.6677 24.0014C18.6677 23.6477 18.8082 23.3086 19.0583 23.0585C19.3083 22.8085 19.6475 22.668 20.0011 22.668H22.0012C22.4706 22.668 22.8626 22.548 23.0946 22.392C23.288 22.264 23.3346 22.1519 23.3346 22.0013C23.3346 21.8519 23.288 21.7386 23.0946 21.6106C22.8626 21.4559 22.4706 21.3346 22.0012 21.3346H20.6678C20.3142 21.3346 19.975 21.1941 19.725 20.944C19.4749 20.694 19.3344 20.3548 19.3344 20.0012C19.3344 19.6475 19.4749 19.3084 19.725 19.0583C19.975 18.8083 20.3142 18.6678 20.6678 18.6678H22.6679C23.1373 18.6678 23.5293 18.5478 23.7613 18.3918C23.9547 18.2638 24.0013 18.1517 24.0013 18.0011C24.0013 17.8517 23.9547 17.7384 23.7613 17.6104C23.5293 17.4557 23.1373 17.3344 22.6679 17.3344H21.3345C20.9809 17.3344 20.6417 17.1939 20.3917 16.9438C20.1416 16.6938 20.0011 16.3546 20.0011 16.001C20.0011 15.6473 20.1416 15.3082 20.3917 15.0581C20.6417 14.8081 20.9809 14.6676 21.3345 14.6676H22.6679C23.1373 14.6676 23.5293 14.5476 23.7613 14.3916C23.9547 14.2636 24.0013 14.1516 24.0013 14.0009C24.0013 13.8515 23.9547 13.7382 23.7613 13.6102C23.5293 13.4555 23.1373 13.3342 22.6679 13.3342H16.6676C16.4556 13.3342 16.2467 13.2837 16.0581 13.1869C15.8695 13.09 15.7068 12.9496 15.5833 12.7773C15.4598 12.6049 15.3793 12.4056 15.3482 12.1959C15.3172 11.9862 15.3366 11.7721 15.4049 11.5714V11.5701L15.4102 11.5568L15.4276 11.5034L15.4982 11.2767C15.5569 11.0767 15.6382 10.7874 15.7222 10.4394C15.925 9.62374 16.0491 8.79056 16.0929 7.95125C16.1276 7.03787 16.0063 6.33784 15.7623 5.91115C15.6182 5.65781 15.4009 5.42979 14.8955 5.35779C14.8315 5.57647 14.7729 5.87515 14.6875 6.3125L14.6315 6.59252ZM18.405 10.6674C18.5677 9.92335 18.7224 8.99664 18.7584 8.04992C18.7984 6.9632 18.6917 5.66314 18.0784 4.58975C17.3983 3.39503 16.1956 2.66699 14.5342 2.66699C14.0248 2.66699 13.5475 2.835 13.1608 3.17368C12.8101 3.48037 12.6101 3.86172 12.4861 4.1684C12.2887 4.65776 12.1661 5.29245 12.0634 5.82848L12.0154 6.07516C11.7567 7.39122 11.418 8.69795 10.3913 9.72467C10.274 9.84201 10.1313 9.97802 9.96863 10.1314C8.47123 11.5501 5.33374 14.5249 5.33374 19.3345C5.33374 22.0506 6.4938 24.5347 8.19921 26.3348C9.89663 28.1269 12.2287 29.335 14.6675 29.335H21.3345C22.1986 29.335 23.1399 29.1216 23.908 28.6109C24.7147 28.0722 25.3347 27.1842 25.3347 26.0015C25.3347 25.3761 25.1614 24.8347 24.8814 24.3814C25.5334 23.8347 26.0014 23.0307 26.0014 22.0013C26.0014 21.3759 25.8281 20.8332 25.5481 20.3825C26.2001 19.8358 26.6681 19.0305 26.6681 18.0011C26.6681 17.189 26.3774 16.517 25.9334 16.001C26.3761 15.485 26.6681 14.8129 26.6681 14.0009C26.6681 12.8168 26.0481 11.9301 25.2414 11.3914C24.4733 10.8794 23.532 10.6674 22.6679 10.6674H18.405Z" fill="black"/>
</svg>
