<svg width="25" height="24" viewBox="0 0 25 24" fill="none" xmlns="http://www.w3.org/2000/svg">
<path fill-rule="evenodd" clip-rule="evenodd" d="M6.82353 3.56043C4.72653 3.56043 3.05194 5.23954 3.05194 7.28224C3.05194 9.5814 4.38256 12.0344 6.44034 14.4377C8.16923 16.4547 10.2693 18.2742 12.1038 19.7421C13.9383 18.2742 16.0383 16.4532 17.7672 14.4377C19.825 12.0344 21.1556 9.57989 21.1556 7.28224C21.1556 5.23954 19.481 3.56043 17.384 3.56043C15.287 3.56043 13.6124 5.23954 13.6124 7.28224C13.6124 7.68235 13.4534 8.06608 13.1705 8.349C12.8876 8.63193 12.5039 8.79087 12.1038 8.79087C11.7036 8.79087 11.3199 8.63193 11.037 8.349C10.7541 8.06608 10.5951 7.68235 10.5951 7.28224C10.5951 5.23954 8.92053 3.56043 6.82353 3.56043ZM12.1038 3.04599C11.4649 2.26263 10.6595 1.63152 9.74614 1.19857C8.83275 0.765627 7.83434 0.541725 6.82353 0.543159C3.08815 0.543159 0.034668 3.54534 0.034668 7.28224C0.034668 10.6782 1.94611 13.8297 4.14872 16.4004C6.38301 19.0089 9.12269 21.2552 11.1775 22.8544C11.4423 23.0604 11.7682 23.1722 12.1038 23.1722C12.4393 23.1722 12.7652 23.0604 13.0301 22.8544C15.0848 21.2552 17.8245 19.0074 20.0588 16.4004C22.2614 13.8297 24.1728 10.6782 24.1728 7.28224C24.1728 3.54534 21.1194 0.543159 17.384 0.543159C15.2568 0.543159 13.3499 1.51774 12.1038 3.04599Z" fill="black"/>
</svg>
