<svg width="37" height="25" viewBox="0 0 37 25" fill="none" xmlns="http://www.w3.org/2000/svg">
<path fill-rule="evenodd" clip-rule="evenodd" d="M24.1383 3.05176C22.938 3.05176 21.7868 3.52859 20.938 4.37736C20.0892 5.22614 19.6124 6.37732 19.6124 7.57766C19.6124 8.77801 20.0892 9.92919 20.938 10.778C21.7868 11.6267 22.938 12.1036 24.1383 12.1036C25.3387 12.1036 26.4898 11.6267 27.3386 10.778C28.1874 9.92919 28.6642 8.77801 28.6642 7.57766C28.6642 6.37732 28.1874 5.22614 27.3386 4.37736C26.4898 3.52859 25.3387 3.05176 24.1383 3.05176ZM16.5951 7.57766C16.5951 6.34806 16.8957 5.1371 17.4707 4.05023C18.0458 2.96336 18.8778 2.03354 19.8943 1.34172C20.9108 0.649911 22.081 0.217083 23.3031 0.0809324C24.5251 -0.0552187 25.7619 0.109434 26.9058 0.560554C28.0496 1.01167 29.0659 1.73558 29.866 2.66924C30.6661 3.60291 31.2259 4.71801 31.4965 5.91746C31.7671 7.11691 31.7405 8.36434 31.4188 9.55111C31.0971 10.7379 30.4902 11.828 29.6509 12.7266C32.2102 13.5592 34.4229 15.2139 35.9449 17.4336C36.1572 17.7642 36.2321 18.1647 36.1537 18.5497C36.0753 18.9347 35.8498 19.274 35.5251 19.4953C35.2004 19.7166 34.8022 19.8025 34.4151 19.7347C34.0281 19.6669 33.6828 19.4508 33.4526 19.1323C31.9802 16.9719 29.2948 15.1208 25.6469 15.1208C19.8628 15.1208 16.5951 19.7584 16.5951 22.664C16.5951 23.0641 16.4362 23.4479 16.1533 23.7308C15.8703 24.0137 15.4866 24.1727 15.0865 24.1727C14.6864 24.1727 14.3027 24.0137 14.0197 23.7308C13.7368 23.4479 13.5779 23.0641 13.5779 22.664C13.5779 21.62 13.8162 20.5067 14.2718 19.4099C14.1534 19.3332 14.0462 19.2402 13.9535 19.1338C12.7149 17.7247 10.7929 16.6295 8.29763 16.6295C5.80235 16.6295 3.88035 17.7247 2.64176 19.1338C2.37356 19.4187 2.00519 19.5882 1.61436 19.6067C1.22354 19.6251 0.840842 19.491 0.547035 19.2326C0.253227 18.9742 0.0712908 18.6118 0.0396215 18.2218C0.00795213 17.8318 0.129027 17.4448 0.377294 17.1424C1.26817 16.1285 2.34845 15.2983 3.5575 14.6984C2.59153 13.7557 1.9285 12.5464 1.6531 11.2251C1.3777 9.90372 1.50242 8.53026 2.01135 7.28013C2.52028 6.03 3.3903 4.95995 4.51029 4.20666C5.63027 3.45336 6.94939 3.05102 8.29914 3.05102C9.64889 3.05102 10.968 3.45336 12.088 4.20666C13.208 4.95995 14.078 6.03 14.5869 7.28013C15.0959 8.53026 15.2206 9.90372 14.9452 11.2251C14.6698 12.5464 14.0068 13.7557 13.0408 14.6984C14.0874 15.2179 15.0387 15.9105 15.8544 16.7472C16.879 15.4578 18.1537 14.3889 19.6018 13.6047C18.6673 12.9023 17.909 11.9921 17.3872 10.946C16.8653 9.89993 16.5941 8.7467 16.5951 7.57766V7.57766ZM4.52604 9.84062C4.52604 8.84033 4.92341 7.88101 5.63072 7.1737C6.33803 6.46639 7.29734 6.06903 8.29763 6.06903C9.29792 6.06903 10.2572 6.46639 10.9645 7.1737C11.6719 7.88101 12.0692 8.84033 12.0692 9.84062C12.0692 10.8409 11.6719 11.8002 10.9645 12.5075C10.2572 13.2148 9.29792 13.6122 8.29763 13.6122C7.29734 13.6122 6.33803 13.2148 5.63072 12.5075C4.92341 11.8002 4.52604 10.8409 4.52604 9.84062Z" fill="black"/>
</svg>
