<svg width="32" height="31" viewBox="0 0 32 31" fill="none" xmlns="http://www.w3.org/2000/svg">
<path fill-rule="evenodd" clip-rule="evenodd" d="M2.01742 0.0172731C1.61731 0.0172731 1.23358 0.176218 0.950658 0.459142C0.667734 0.742066 0.508789 1.12579 0.508789 1.52591C0.508789 1.92602 0.667734 2.30975 0.950658 2.59268C1.23358 2.8756 1.61731 3.03455 2.01742 3.03455H2.7295C3.06054 3.03448 3.38241 3.14329 3.64549 3.34422C3.90858 3.54515 4.09827 3.82703 4.18533 4.14641L4.81293 6.44859L8.05197 18.3216V21.1382C8.05197 22.1852 8.4065 23.1477 9.00241 23.9141C8.57589 24.3949 8.27934 24.9768 8.14091 25.6045C8.00248 26.2322 8.02677 26.8848 8.21145 27.5005C8.39614 28.1161 8.73511 28.6744 9.19618 29.1222C9.65725 29.5701 10.2251 29.8926 10.8459 30.0593C11.4667 30.226 12.1198 30.2313 12.7431 30.0746C13.3665 29.918 13.9395 29.6046 14.4078 29.1643C14.876 28.724 15.224 28.1713 15.4186 27.5587C15.6132 26.9461 15.648 26.2939 15.5197 25.6641H20.1965C20.0793 26.24 20.0983 26.8353 20.252 27.4025C20.4058 27.9698 20.6899 28.4932 21.0818 28.9312C21.4737 29.3691 21.9625 29.7094 22.5093 29.9249C23.056 30.1404 23.6456 30.2252 24.2309 30.1724C24.8162 30.1197 25.3811 29.9309 25.8805 29.6211C26.3799 29.3113 26.8 28.8891 27.1073 28.3881C27.4146 27.8871 27.6006 27.3213 27.6504 26.7357C27.7002 26.1501 27.6124 25.561 27.3942 25.0154C27.5511 24.7891 27.6432 24.5243 27.6603 24.2494C27.6775 23.9746 27.6191 23.7004 27.4915 23.4564C27.3639 23.2123 27.172 23.0079 26.9365 22.8652C26.701 22.7225 26.4309 22.647 26.1556 22.6468H12.5794C12.1793 22.6468 11.7955 22.4879 11.5126 22.2049C11.2297 21.922 11.0707 21.5383 11.0707 21.1382V19.6295H26.5131C27.1752 19.6297 27.819 19.412 28.3451 19.0102C28.8713 18.6083 29.2507 18.0446 29.4248 17.4058L31.8914 8.35399C32.0135 7.90611 32.0306 7.4361 31.9414 6.98054C31.8522 6.52497 31.659 6.09613 31.377 5.7274C31.095 5.35866 30.7317 5.05998 30.3154 4.85458C29.8991 4.64919 29.441 4.54262 28.9767 4.54318H7.42136L7.097 3.35136C6.83554 2.39349 6.26633 1.54819 5.4771 0.945699C4.68787 0.343212 3.72241 0.0169802 2.7295 0.0172731H2.01742ZM23.8926 25.6641C23.6926 25.6641 23.5007 25.7436 23.3593 25.885C23.2178 26.0265 23.1383 26.2183 23.1383 26.4184C23.1383 26.6185 23.2178 26.8103 23.3593 26.9518C23.5007 27.0932 23.6926 27.1727 23.8926 27.1727C24.0927 27.1727 24.2846 27.0932 24.426 26.9518C24.5675 26.8103 24.647 26.6185 24.647 26.4184C24.647 26.2183 24.5675 26.0265 24.426 25.885C24.2846 25.7436 24.0927 25.6641 23.8926 25.6641ZM26.5116 16.6123H10.7132L8.24356 7.56045H28.9783L26.5116 16.6123V16.6123ZM11.8236 25.6641C11.6235 25.6641 11.4316 25.7436 11.2902 25.885C11.1487 26.0265 11.0692 26.2183 11.0692 26.4184C11.0692 26.6185 11.1487 26.8103 11.2902 26.9518C11.4316 27.0932 11.6235 27.1727 11.8236 27.1727C12.0236 27.1727 12.2155 27.0932 12.3569 26.9518C12.4984 26.8103 12.5779 26.6185 12.5779 26.4184C12.5779 26.2183 12.4984 26.0265 12.3569 25.885C12.2155 25.7436 12.0236 25.6641 11.8236 25.6641Z" fill="black"/>
</svg>
